<svg xmlns="http://www.w3.org/2000/svg" xmlns:xlink="http://www.w3.org/1999/xlink">
  <symbol id="cart" viewBox="264.2 371 20.3 18.8" fill="currentColor">
    <path d="M283.7 378.2h-3.2l-3.4-6.8c-.2-.4-.6-.5-1-.3s-.5.6-.3 1l3.1 6.1h-9.1l3.1-6.1c.2-.4 0-.8-.3-1-.4-.2-.8 0-1 .3l-3.4 6.8H265c-.4 0-.8.3-.8.8 0 .4.3.8.8.8h.2l.9 3c-.2.1-.3.3-.3.6 0 .4.3.7.7.7l1.7 5.8h12.7l1.7-5.8c.4 0 .7-.3.7-.7 0-.2-.1-.5-.3-.6l.9-3h.2c.4 0 .8-.3.8-.8-.4-.5-.7-.8-1.2-.8zm-4.1 10.1h-10.4L268 384h12.9l-1.3 4.3zm1.6-5.8h-13.7l-.8-2.8H282l-.8 2.8z"/>
  </symbol>
  <symbol id="favicons" viewBox="0 0 66 100.8">
    <path d="M47 45.5c-.6-3.3.1-6.9 0-10.3-.1-3.8-.7-7.5-.7-11.2 0-3 .5-6.2-.5-9.1.1-.3.1-.7.2-1 .3-1.5-4.6-.7-5.3.6-.5.4-.7.9-.5 1.3.1.1.1.2.1.4-.9 4.5-2.2 8.8-3.7 13.2-.6 1.7-1.2 3.3-1.8 4.9-.8-1.5-1.6-3.1-2.3-4.7-1.9-4.8-3.7-9.7-6-14.3.3-2.1-4.5-1.9-5.4 0-1.1 2.4-1 4.8-.6 7.3.4 2.9.5 5.7.5 8.6.1 5.6.5 11.1.6 16.7-.5.6-.6 1.2-.1 1.9.2.3.5.5.8.8 1.3 1 4.9.2 4.9-1.8 0-5.8-.4-11.5-.6-17.3v-1.7c.1.2.2.4.2.6.9 2.2 1.8 4.4 3.1 6.5 1.2 2.1 1.8 4.3 2.5 6.5-.3.3-.4.6-.3 1-.1.3.1.4.4.5.9.8 2.6.4 3.5 0l1.2-.6c.5-.3 1.2-1 1-1.6 0-.1-.1-.3-.1-.4.7-1.8 1-3.6 1.4-5.5.4-2 1.1-3.9 1.8-5.8.1.9.1 1.7.2 2.6.3 3.6 0 7.1 0 10.7 0 1.2.1 2.3.3 3.4.1.5.5 2.5.4 2.6-.9.8-.6 1.8.5 2 1.3.3 2.9-.1 3.9-1 1.6-1.4.8-3.8.4-5.8z" fill="#6bc6b3"/>
  </symbol>
  <symbol id="fb" viewBox="56.5 50 15 27.7" fill="currentColor">
    <path d="M68.2 55.2c1 0 2 0 2.7-.3.4-.8.6-1.9.6-3-.2 0-.1-.3-.2-.4 0-.2-.3-.2-.3-.4-.3-.2-.5-.4-.7-.6-.7-.2-1.4-.3-2.2-.5-.8 0-1.9-.1-2.6.1-2.6 0-4 1.1-5.3 2.4 0 .1 0 .2-.1.2-.6 1.6-.1 3.6-.2 5.6.1.4.1 1 .2 1.4-1 .3-2.2.4-3.4.5-.3.3-.2 1.1-.2 1.7.1.6.3 1.1.4 1.6.2.2.6.4.8.5.1 0 .1.1.1.1.5.3 1.5 0 2.3.1-.1 2 .3 3.9 0 5.7 0 .3.3.4.2.8 0 1-.1 2 .2 2.7-.3.5-.5 1-.4 1.8.1 0 .1.2.1.3-.1.5.6.2.5.7.2.5-.4.2-.4.5v.9c.5.3 1.5.2 2.3.2.9-.4 2.2-.5 2.8-1.2.5.2.9 0 1.2-.2 0-.3.3-.3.2-.7 0-.3-.2-.5-.1-.9v-2.9c-.2-2.3 0-4.9-.3-7.2.9-.1 1.9-.1 2.6-.4.4-.5.4-1.2.5-1.9.2-.2.2-.6.2-1 .2-.2.1-.7.1-1.1-.1-.6-.2-1.3-.8-1.4-.9-.2-2 .6-3 .3 0-1.1-.3-2.3 0-3.4.8-.2 1.5-.4 2.2-.6zM64.4 60c.1.3.3.5.4.7.1 0 .2 0 .2.1 1.2.1 2.2-.1 3.1-.3 0 1-.3 1.7-.5 2.5-.7 0-1.5.3-2 .2-.3.2-.4.5-.6.7 0 .4.1.5 0 .8-.2.1-.1.6-.2.8V67c.1.3-.1.3-.1.5V71c-.1.3.1.3.1.5v3c.1.3-.1.8.1.9-.1.4-.4 0-.8.1-.5.1-.9.4-1.5.4.1-.4.3-.6.3-1.1 0-.4-.4-.3-.5-.5.2-.6.6-1.1.7-1.8.2-.5.7-1.3.3-1.8-.5-.1-.5.3-.8.4 0 .1 0 .2-.1.2 0 .1 0 .2-.1.2 0 .1-.2.1 0 0 0-.1 0-.2.1-.2 0-.1 0-.2.1-.2v-.3c.4-.6.7-1.2.8-2 .2-.3.3-.7.4-1 .2-.3.3-.9.1-1.2-.5 0-.8.3-.9.7-.3-.2.2-.4.1-.7.1-.2.2-.6.3-.8.2-.4.6-1.3 0-1.6-.4 0-.6.2-.7.5-.2.2-.4.4-.5.7-.4-.1-.1-.7-.2-1.1-.1-.5.1-.9 0-1.2-.6-.8-2-.1-3.2-.3-.1-.3-.2-1-.1-1.2 1-.1 2.5.2 3.2-.2 0-.1 0-.2.1-.2.1-.7-.3-1-.5-1.4.2-.8 0-2 .1-3 .2-.1.3-.4.5-.6.1-1 .7-1.5.7-2.5-.3 0-.6-.1-.6.2-.3-.1-.4.5-.5.2-.1-.5.2-.6.3-1 .6-.4 1.2-.8 1.9-1.2 1.7-.2 4.6-.4 6.1.2.1.6-.3.9-.2 1.5h-1.5c-1.1.2-2 .7-3 1-.2.1-.3.3-.5.4 0 .4-.2.6-.3 1-.3 1.4-.1 2.6-.1 4z"/>
  </symbol>
  <symbol id="htmlacademy" viewBox="0 0 154.4 195.3" fill="currentColor">
    <path d="M78 .6l-.8-.1-76.7 8v140.6l76.7 45.6 76.7-45.6V8.5L78 .6zm65.9 142.8l-66.7 39.7-66.7-39.7V85.8l66.4 39.5.1 7.2-45.5-27.1-.1 7 45.7 27.5.1 7.3L31.5 120l-.1 7 45.7 27.5 46.2-27.6v-7h-.1V97.1l20.6-12.3v58.6zm-.1-66.1L125.6 88l-8.4 5L77 69.2l-.1 7 34.3 20.4-.3.2-.7.4-4.9 2.9L77 83.2l-.1 7 22.4 13.3L94 107l-.1.1-16.9-10-.1 7 11.1 6.5-11.3 6.8-66-39.3 66.1-39.8 67 39zm.1-6.9l-67-39.5-66.4 39.4V17.6l66.7-7 66.7 7v52.8z"/>
  </symbol>
  <symbol id="icon-1" viewBox="8 4.3 32 37.3" fill="#63d1bb">
    <path d="M24 41.7c8.8 0 16-7.2 16-16-8.8 0-16 7.1-16 16zM12.6 20.8c0 2.5 2 4.4 4.4 4.4.9 0 1.8-.3 2.5-.8v.3c0 2.5 2 4.4 4.4 4.4 2.5 0 4.4-2 4.4-4.4v-.3a4.376 4.376 0 006.9-3.6c0-1.8-1-3.3-2.5-4 1.5-.7 2.5-2.2 2.5-4 0-2.5-2-4.4-4.4-4.4-.9 0-1.8.3-2.5.8v-.3c0-2.5-2-4.4-4.4-4.4-2.5 0-4.4 2-4.4 4.4v.3a4.376 4.376 0 00-6.9 3.6c0 1.8 1 3.3 2.5 4-1.4.7-2.5 2.2-2.5 4zM24 12.3c2.5 0 4.4 2 4.4 4.4 0 2.5-2 4.4-4.4 4.4-2.5 0-4.4-2-4.4-4.4 0-2.4 1.9-4.4 4.4-4.4zM8 25.7c0 8.8 7.2 16 16 16 0-8.9-7.2-16-16-16z"/>
  </symbol>
  <symbol id="icon-2" viewBox="46.2 56.8 46.6 27.3" fill="#63d1bb">
    <path d="M88.9 56.8H50.1c-2.2 0-3.9 1.7-3.9 3.9v19.5c0 2.2 1.7 3.9 3.9 3.9h38.8c2.2 0 3.9-1.7 3.9-3.9V60.7c0-2.1-1.8-3.9-3.9-3.9zm-39.7 25V59.6h40.2v22.2H49.2z"/>
    <path d="M53.1 77.9h32.4V63.5H53.1v14.4zm16.4-12.5c2.9 0 5.3 2.4 5.3 5.3S72.4 76 69.5 76s-5.3-2.4-5.3-5.3c0-3 2.4-5.3 5.3-5.3z"/>
  </symbol>
  <symbol id="icon-3" viewBox="47.5 50.1 33.1 27.9" fill="#63d1bb">
    <path d="M80.5 58.8c0-4.8-3.9-8.7-8.7-8.7-3.4 0-6.3 2-7.8 4.8-1.4-2.8-4.4-4.8-7.8-4.8-4.8 0-8.7 3.9-8.7 8.7 0 9.1 14.7 19.1 16.5 19.1 1.9 0 16.5-9.9 16.5-19.1z"/>
    </symbol>
    <symbol id="icon-4" viewBox="0 0 34.4 34.4" fill="#63d1bb">
      <path d="M.3 14.1c-.4 2.1-.4 4.2 0 6.3l4.1-3.2-4.1-3.1zM24.4 1.6C19.6-.6 14-.6 9.1 2l7.5 5.6 7.8-6zM33.9 13.2l-4.8 3.7 4.9 3.7c.5-2.4.5-5-.1-7.4zM9.2 32.4c4.8 2.5 10.7 2.7 15.7.1l-8.1-6.1-7.6 6zM7.9 14.4L1.7 9.8c-.3.7-.6 1.4-.8 2.1l5.3 4 1.7-1.5zM18.6 25.1l8.3 6.2c.3-.2.6-.4.8-.6.3-.2.6-.5.9-.8l-8.3-6.2-1.7 1.4zM11.4 11.7L4 6.2c-.5.5-.9 1.1-1.3 1.7l6.9 5.2 1.8-1.4zM22.1 22.4l8.1 6.1c.5-.5.9-1.1 1.3-1.7L23.8 21l-1.7 1.4zM14.9 9L7.2 3.2c-.2.1-.4.3-.6.4-.4.3-.8.6-1.1 1l7.7 5.7L14.9 9zM25.6 19.6l7 5.2c.3-.7.6-1.3.9-2l-6.1-4.6-1.8 1.4zM26.4 2.7L.9 22.6c.2.7.5 1.4.8 2.1L28.2 4c-.5-.5-1.1-.9-1.8-1.3zM30.7 6.6c-.3-.4-.6-.8-.9-1.1l-27 21c.2.5.5.9.8 1.2.1.2.3.4.4.5l27.2-21c-.2-.2-.3-.4-.5-.6zM32.3 9L5.6 29.8c.5.5 1.1 1 1.7 1.4l26-20.2c-.3-.7-.6-1.4-1-2z"/>
    </symbol>
    <symbol id="icon-5" viewBox="612.5 500.4 54.2 23.2" fill="#63d1bb">
      <path d="M652.8 506.1c-3.6-1-7.8-1.7-12.4-1.7-2.9 0-5.5.2-7.7.6l-6.8-4.7h-13.5l5.8 6.2h8.4c-4.6 1.6-6.8 3.5-6.8 3.5v3.8s2.3 1.9 6.9 3.5h-8.6l-5.8 6.2h13.5l6.8-4.7c2.3.4 4.8.6 7.7.6 4.5 0 8.7-.7 12.4-1.7-1.2-1.8-1.9-3.7-1.9-5.9.1-2 .9-3.9 2-5.7zM656.3 507.1c-1.3 1.6-2 3.2-2 4.8 0 1.6.7 3.2 2 4.8 6.4-2.2 10.4-4.8 10.4-4.8s-4-2.6-10.4-4.8z"/>
    </symbol>
    <symbol id="icon-6" viewBox="239.7 239.8 32.7 32.5" fill="#63d1bb">
      <path d="M242.6 272.2h12.5v-13.9h-12.5v13.9zm28.1-23.6h-7.3c.5-.3 1-.5 1.4-.8 1.6-1.1 2.4-2.6 2.4-4 0-1.2-.6-2.2-1.4-2.9-.8-.7-1.9-1.1-3-1.1-1.2 0-2.4.4-3.3 1.1-1.5 1-2.6 2.5-3.4 4.1 0 .1-.1.2-.1.2-.3-.6-.6-1.2-1-1.8-.7-1-1.5-1.9-2.5-2.5-1-.6-2.1-1.1-3.3-1.1-1.2 0-2.3.5-3.2 1.3-.8.8-1.4 1.9-1.4 3.1 0 .7.2 1.5.6 2.2.6.9 1.4 1.6 2.6 2.2h-6.6c-.9 0-1.6.7-1.6 1.6v5.9H255v-7.5h1.9v7.5h15.4v-5.9c0-.9-.7-1.6-1.6-1.6m-22.3-2.3c-.6-.4-1-.8-1.2-1.1-.2-.4-.3-.7-.3-1 0-.5.2-1 .7-1.5.4-.4 1-.7 1.6-.7.7 0 1.4.2 2 .7 1 .7 2 1.8 2.6 3.2.3.7.6 1.4.8 2.1-3.1-.3-5.1-1-6.2-1.7m10.5-1.6c.6-.8 1.2-1.5 1.9-1.9.7-.5 1.4-.7 2-.7.6 0 1.1.2 1.5.5.4.3.6.7.6 1.2s-.3 1.3-1.5 2.1c-1.1.8-3.1 1.7-6.1 2.3.3-1.2.9-2.5 1.6-3.5m-2 27.5h12.5v-13.9h-12.5v13.9z"/>
    </symbol>
    <symbol id="insta" viewBox="53.1 53.2 21.8 21.3" fill="currentColor">
      <path d="M74.9 65.3c0-2.4-.3-4.8-.3-7.1 0-.8-.1-1.5-.2-2.3-.1-.3-.1-.7-.2-1.1-.3-.2-.2-.6-.5-.8-.4-.2-1.2-.1-1.7-.2-.7 0-1.3-.1-1.9-.2-1.9-.1-4-.1-6-.1s-4-.1-5.7-.4h-2.2c-.1 0-.1.1-.2.1-.6 0-1.1.2-1.6.3-.2.1-.4.2-.7.3-.1.2-.5.1-.6.4-.2.2.2.5 0 .6v.9c.2.1 0 .6.1.8v1c0 1.3.1 2.4.1 3.7.5 2.8.4 6.5.1 9.4.2.6.4 1.1.5 1.7.3.5.3 1.1.7 1.5.5.2 1.2.2 1.9.2.4.1.7.3 1.1.3 2.8-.2 5.5-.2 8.4-.2 2.7.2 5.8.2 8.3-.2.2-.1.1-.5.2-.8-.1-.4.2-.4.2-.8.2-2.1.2-4.5.2-7zm-13-6.2c.8-.2 1.5-.3 2.4-.3.7.1 1.3.3 1.9.5.1.2-.2.5.2.7.1 0 .1 0 .2.1.4 0 .8.2 1.1.4.5.1.5.5 1.1.4-.1.2-.1.5-.1.8.3 1.2.5 2.8.3 4.3-.2.2-.2.4-.3.7-.3.3-.5.8-.8 1.1-.1.2-.3.4-.5.5-.1.2-.2.5-.5.5-.3.2-.6 0-.8-.1-.4.2-.9.3-1.2.6l-2.4-.3c-.2-.1-.5-.3-.8-.3-.2-.2-.5-.4-.8-.5-.1-.1-.3-.1-.5-.2-.2 0-.2-.2-.5-.2-.1-.4-.4-.6-.5-1.1-.2-.3-.3-.8-.5-1.2 0-1.4.1-2.7.4-3.8.3-.6.8-1.1 1.1-1.7.2 0 .4-.1.4-.3.3.1.4-.1.7-.1.2 0 .2-.3.4-.5zm-1.7-2.7c-.1-.3-.1-.7-.1-1.1 0-.3.3-.3.3-.5 0-.1-.1-.1-.2-.1.1-.1.7-.1.8 0 .1.5-.4.5-.5.7 0 .2.3 0 .5.1 0 .9-.1 1.5 0 2.2h-.5c0 .2.2.2.5.2-.1.3.1.4.1.6-.2.2-.7 0-1.1.1 0-.6.3-1.4.2-2.2zm-.7-1.6c.1 0 .1 0 .2.1.2.3 0 .7-.1.9-.2-.2 0-.7-.1-1zm.2 1.8c-.1-.1-.2-.2-.2-.5.2.1.2.3.2.5zm0 1.4c-.1.1-.1 0-.1-.2.1-.1.1.1.1.2zm-.2.2c.2 0 .1.2.2.2 0 .2-.3.2-.4.1.1-.1.2-.2.2-.3zM57.2 57c0-.1 0-.2-.1-.2-.1-.7.1-1.4 0-2 .3-.2.8 0 1.1-.1v1.1c-.1.1-.2.1-.4.1-.1.3.3.1.4.3 0 .9-.1 1.8.2 2.4-.6-.1-.9.1-1.4.1.1-.6 0-1.4.5-1.6 0-.1-.3 0-.3-.1zm-.5 0c-.2 0-.2-.5-.1-.6.3 0 .2.5.1.6zm-.2 1c.1-.3 0-.3.1-.7.2 0 .2.8-.1.7zm.2-2.1c-.3.1-.3-.3-.2-.4.3 0 .4.3.2.4zm0-1.1c0 .2-.1.2-.1.3-.2 0-.1-.2-.2-.2.1-.1.2-.1.3-.1zm-.2 3.7c.1 0 .1.3-.1.2.1 0 .1-.1.1-.2zm-.7-3.7c0 .3-.4.3-.4 0h.4zm-1 .1c0 .2-.3.2-.4.4-.2-.2.1-.5.4-.4zm-.4.7c.2-.2.5-.4.7-.6 0-.1.1-.1.1-.2h.2c.1.4-.3.3-.3.5 0 .1-.1.1-.1.2 0 .3.1.6.1 1-.3 0-.3.3-.6.2 0-.4-.2-.6-.1-1.1zm.1 3.3v-1.6c.2-.2.4-.4.6-.5.3.5.2 1.4.5 1.9-.4.1-.8.1-1.1.2zM72.7 70c-.1 1-.2 2-.4 2.8-2.9.1-6 0-8.9.2-.2 0-.3 0-.2-.2-.3 0-.3.2-.5.2.2-.3.4-.9.2-1.3-.8 0-.8.8-1.1 1.3-.7-.1-1.1.1-1.8.1.2-.7.7-1 .9-1.7-.4-.5-1 .1-1.2.5-.2.5-.6.8-.8 1.3h-1c.2-.5.5-.9.8-1.4.2-.5.6-.7.7-1.4-.2-.3-.4 0-.7 0-.1.2-.3.3-.4.5-.2.4-.5.7-.7 1.1-.2.2-.3 0-.5.2-.4.3-.6.7-1 1-.2-.1 0-.4.2-.4 0-.2-.1-.5.1-.6.1-.4.2-.6.4-.9.1-.7.5-1.2.7-1.9-.6.1-.7.6-1 1-.2.4-.5.8-.7 1.3-.2-.1 0-.6-.1-.8.1-.6.3-1.1.4-1.7.1-.2.2-.5.2-.8.2-.2 0-.6-.1-.8-.2 0-.4.1-.5.3-.2 0-.2.5-.3.3 0-2.6-.5-4.8-.5-7.4 0-.3-.2-.4-.2-.7 1.6 0 3.1.1 4.8.2-.1.1-.2.3-.3.4-.1.1-.2.2-.4.3-.6 1.7-1 4-.6 6.2.2.6.6 1 1 1.4.9.5 1.6 1.1 2.5 1.7 1.7.4 3.8.4 5.5 0 .2-.1.5-.2.7-.4 1.4-1.2 2.8-2.5 3-4.9v-1.4c-.2-1.6-.7-2.9-1.7-3.6.3-.2 1.1 0 1.7.1h.7c.4 0 .9-.1 1.4 0 .1.2.1.5.2.8-.1 1.7-.2 3.3-.2 5.1.1.5.1 1 .2 1.4-.2.8-.3 1.7-.5 2.6zm.4-11.2c-.6-.1-1.2-.3-1.9-.4.1-.3.8 0 1-.2.4-.2.3-.9.3-1.5 0-.3.1-.6.1-1.1-.4-1-1.8-.4-2.9-.5-.2.7-.5 1.8-.3 2.7.2.5 1 .3 1.5.5-.1.3-.7.1-1 .1-.3-.1-.7-.1-1-.2-2.3.1-4.3 0-6.5.2.1-1.2.1-2.5-.1-3.6h3.1c-.3.4-.9.5-1.3.8-.4.2-.9.5-1.1.9.2.1.5-.2.8-.4.4-.1.5-.4.8-.5.4-.4 1.1-.6 1.7-.9.4 0 .7 0 1 .1 1.3 0 2.5.1 3.8.1.6.1 1.5.1 2 .3l.3.9c-.1 1-.3 1.8-.3 2.7zm-5.9-3.7c.1-.1 0-.1 0 0zm0 0c-.5.2-1 .3-1.4.7.5-.2 1.1-.3 1.4-.7zm1.1.6c.1-.1 0-.1 0 0zm-1.8.9c.7-.2 1.2-.6 1.7-.9-.4 0-.6.3-1 .4-.1.2-.5.2-.7.5zm-.7-.8c-.1 0 .1.1 0 0zm-.6.6c.1-.1 0-.1 0 0zm-.1.1c.1 0 .1-.1 0 0 0-.1 0-.1 0 0zm-.1 0c.1 0 .1 0 0 0 0-.1 0 0 0 0zm-.8.6c.3-.1.6-.3.8-.6-.3.2-.6.4-.8.6zm2.3 1c.5 0 .7-.4 1.2-.5.3-.3.8-.4 1-.8-.6 0-.8.4-1.2.5-.3.4-.8.5-1 .8zm-2.3-1c-.3 0 0 .3 0 0zm-.6.4c.1 0 .2 0 0 0 .1-.1 0 0 0 0zm2.9.6c-.2.1 0 .1 0 0zm-1.2 1.8c-.2-.2-.7-.2-1-.4-.7 0-1.2.1-1.7.2-.3.2-.6.3-.9.5-.3.2-.4.4-.8.5-.2.2-.4.5-.7.6 0 .2-.2.3-.3.4-.1.1-.1.3-.2.4 0 .1 0 .3-.1.3.1 1.5.3 2.9.7 4.2.3.6 1 .8 1.4 1.3.6.3 1.3.4 2.1.5.3-.1.6-.1.9-.1 1.2-.2 2.1-.7 2.8-1.4.1-.3.3-.5.5-.7-.3-.7.3-1.1.5-1.6 0-1.3-.2-2.5-.6-3.4-.3-.6-.9-.8-1.4-1.1-.1 0-.2 0-.2-.1-.2-.1-.7-.2-1-.1zm-3.4 4.4c-.1-.1-.1-.2-.2-.4.3-.1.2.2.2.4zm.1.3c0-.1.1 0 0 0 0 .2 0 .1 0 0zm.4-2.1c0-.1.1 0 0 0 .1.1 0 .1 0 0zm1.7-2.1c-.2.3 0 .6.1.8-.3 0-.6-.8-.1-.8zm.4 3.9c-.1 0 0 0 0 0 .1 0 0 .1 0 0zm.7 2.9c0-.1.1 0 .2 0 0 .1-.2.1-.2 0zm2.2-2.5c-.2-.1-.1.2-.4.2.1-.2.1-.3.2-.5.2 0 .3.1.2.3zm-1.1-3.8c.2.1.4.2.6.4.1.2.2.4.4.5.1.8.2 1.5.2 2.4-.3.1-.4.3-.7.4-.8 0-1.4-.2-1.9-.5-.2-.3-.4-.5-.5-.8v-1.1c.2-.2.3-.4.5-.6.2-.1.5-.2.5-.6 0-.1-.1-.1-.1-.2.2 0 .2.2.4.2s.3-.2.6-.1z"/>
    </symbol>
    <symbol id="logo-desktop" viewBox="0 0 148.1 72.7">
      <path d="M143.2 31.4c-1.5 1.1-3.1 1.9-4.7 2.8 0-1.7-.1-3.5-.6-5.1.1-.3.1-.7.1-1 .4-3 .7-7.1-2-9.2-.3-.3-1.2 0-1.9.3-.2-.2-.3-.3-.5-.4-.1-.2-.2-.5-.2-.7 0-.1-.2-.2-.4-.2.3-.4.3-.8-.4-1.1-.4-.2-.8-.3-1.1-.4-.1-.1-.1-.1-.2-.1-.9-.3-1.9-.5-2.9-.7.1-.3.4-.8.6-1 .1-.2.3-.3.4-.4l.2-.2s.1 0 .1-.1l.1-.1c.4-.3.8-.9.2-1.2-.6-.3-1.5-.1-2 .2-.9.7-1.6 1.4-2.1 2.4-2-.2-4-.2-6.1-.1.1-.1.1-.2.1-.3.2-.6-.9-.5-1.2-.5-1.6.2-3.1.4-4.7.6 1.4-3.8 3.1-8.6 1-12.3-1.2-2.1-3.9-2.6-6.1-2.7-2.4-.1-4.9.5-7 1.6-4.8 2.6-7.1 7.7-8.2 13.1-.5-.7-2.3-.4-2.6.5-.1.3-.2.6-.3 1-.2.2-.3.4-.3.6v.2h-.2c0-.1 0-.2.1-.3.1-.1.2-.2.3-.4.6-2.3 1.2-4.6 1.9-6.8.3-.8-2.5-.4-2.8.4-.4 1.2-.8 2.4-1.1 3.6-.2.1-.4.2-.4.3v.1c-.1-.1-.3-.2-.5-.2v-1c0-.4-2.8 0-2.8.8V15c-.2.1-.3.2-.5.3l-.2.2c-.1.1-.1.2-.1.2v.1l-.1.1c-.1.1-.2.3 0 .5s.5.2.7.2h.1v.5h-.7l-.4-.1c0-.4-.7-.5-1.4-.3v-.1c-.1-.6-.2-1.2-.2-1.8.2-.1.5-.2.7-.3.2-.1.3-.2.3-.4v-.2c0-.2-.4-.2-.5-.2h-.6c-.1-1.3-.1-2.6-.1-3.9 0-.8-2.8-.3-2.8.8 0 1.8 0 3.6.2 5.3h-.3v-1.5c0-1-1.3-1.2-2.1-.8.3-.3.5-.6.4-1-.4-1.4-.8-2.8-1-4.3-.2-1.4-3-.7-2.8.8.2 1.5.6 2.9 1 4.3.2.8 1.3.9 2.1.5-.2.2-.4.5-.4.8v.6c-.3-.3-.5-.3-.9-.3-1.1 0-1.7.9-1.4 1.5-.2 0-.3-.1-.5-.1-.4-1.2-.7-2.5-.7-3.8 0-.9-1.3-1-2.1-.7v-.2c-.4-.8-.6-1.7-.8-2.5-.3-1.3-3.2-.6-2.8.8.2.6.3 1.3.5 1.9h-.1c-.3.1-.6.2-.9.4-.8.1-1.8.6-1.8 1.2.1.5.1 1 .2 1.4-.4.1-1 .1-1.5.2-.3-.8-.5-1.6-.6-2.4-.1-.9-1.6-.9-2.3-.3-.8-2.1-1.8-4-3.1-5.8-2.7-3.4-7.2-4.6-11.3-3.7-1.9.4-3.7 1.2-5 2.6-1.2 1.4-1.4 3.1-1.2 4.8.2 1.5.6 4 1.6 6-.4 0-.7 0-.9.1-.3.1-.6.2-.8.4-1.9 0-3.9 0-5.8-.1-4.2-.2-8.3-.9-12.5-.7-.9 0-1.5.7-1.5 1.3-1 .5-1.7 1.3-2.1 2.3-1.7-1.1-3.5-2.3-5.3-3.2-.7-.4-3.3.7-2.3 1.2 1.8.9 3.6 2.1 5.3 3.2.5.3 1.3.1 1.8-.1 0 0 .1 0 .2-.1-.3 1.4-.2 3.1.2 4.5 0 .1.1.2.2.3v1.2c-.4.2-.7.5-.8.8-.2 1.4-.3 2.8-.3 4.2-.3.2-.5.5-.5.8-.2 3.3 0 6.7.5 10 .2 2.7.7 5.3 1.2 8 .1.4.1.8.2 1.3-.3 1.1-.4 2.4-.2 3.5-.9.2-1.7.9-1.2 1.6.8 1.2 1.6 2 2.6 2.6-.6-.1-1.4.1-1.9.6-.8.8-1.7 1.5-2.5 2.3-.4.4-.3.9.3 1.1.7.2 1.5-.1 2-.5.8-.8 1.7-1.5 2.5-2.3.2-.2.3-.5.2-.7 3.2 1.7 7.2 1.3 11.1.9-.9 1.6-1.5 3.3-2.2 5-.3.7 2.5.4 2.8-.4.6-1.7 1.2-3.3 2.1-4.9 3.7.1 7.5.1 11.2.1.1.2.4.3.7.3 3.3.3 6.5-.1 9.7-.7 4.8-.2 9.6-.5 14.4-.8 7.5-.2 15.1-.3 22.6-.3l.3.3c.3.3.6.3 1 .3h.2c.7 0 1.4.1 2.1.1.2 0 .3.1.6 0 .8.1 1.6.1 2.3.2.2.2.5.3.8.4 3.8.3 7.6.5 11.4.7.1.2.5.3.8.3 7.1.1 15.3 2.8 21.6-1.7.5-.4.3-.9-.3-1h-.3c1.2-2.8 2.2-5.6 2.9-8.6.4-.2.6-.5.6-.9 0-1.2.2-2.4.4-3.6.2-.9.3-1.8.4-2.7.4-2.2.8-4.4 1-6.5 2.3-1.1 4.5-2.3 6.6-3.8 1.6-1.2-.8-1.9-1.8-1.2zm-55.4-15l-.1.1c.1-.3.1-.6.2-.9h.1c0 .2-.1.5-.2.8z"/>
      <path d="M63.3 12.6c.1.2.6.2.8.2.4 0 .8-.1 1.1-.2.4-.2 1.1-.6.8-1.1-.4-.6-.6-1.2-1-1.8-.1-.2-.6-.2-.8-.2-.4 0-.8.1-1.1.2-.4.2-1.1.6-.8 1.1.3.6.6 1.3 1 1.8zM20.7 10.9c.2.6 1.1.6 1.6.5.5-.1 1.4-.6 1.2-1.3-.2-.6-.4-1.3-.9-1.8s-1.3-.4-1.9-.2c-.4.2-1.2.8-.7 1.3.4.6.5.9.7 1.5zM30.7 13.9c.8 0 3.1-1.3 1.2-1.3-.9 0-3.1 1.3-1.2 1.3zM122.6 12.3c.3.1.7 0 1.1-.1.3-.1.7-.2.9-.5.4-.4.7-.7 1-1.2.1-.2.2-.4 0-.6-.2-.2-.5-.2-.8-.3-.4 0-.8.1-1.1.2-.3.1-.6.3-.8.6-.1.2-.2.4-.4.5l-.2.2c-.2.2-.3.4-.3.6.1.4.3.5.6.6zM135.9 17.7c.6-.1 1.4-.2 1.9-.7 1.3-1.1 2.6-2.2 3.6-3.6.3-.4-1-.2-1.1-.2-.5.1-1.3.3-1.7.7-.9 1.3-2.2 2.3-3.4 3.4-.5.4.4.4.7.4zM146.7 44.8h-4.9c-.6 0-1.5.5-1.6 1.1-.1.7.8.9 1.3.9h4.9c.6 0 1.5-.5 1.6-1.1.1-.7-.7-.9-1.3-.9zM57 60.8c-.5.1-1.4.3-1.6.8-.5 1.3-1 2.6-1.4 3.9-.2.7 2.6.3 2.8-.5.4-1.3.8-2.6 1.4-3.9.2-.5-1-.3-1.2-.3zM61.6 63.4c-.3 0-.7.1-1 .2-.3.1-.7.2-1 .4-.1.1-.3.2-.3.4v.3c0 .1-.1.2-.1.3-.1.1-.1.2 0 .3.2.1.5.1.7.1.4 0 .7-.1 1.1-.3.2-.1.6-.2.8-.4.1-.2.2-.3.3-.5v-.5c0-.3-.4-.3-.5-.3zM116.7 67.1c-.4-.7-3 .3-2.8.8.8 1.6 1.9 3.1 2.9 4.7.4.7 3-.4 2.8-.8-1-1.6-2.1-3.1-2.9-4.7zM120.7 64.7c-.3-.6-1.1-.6-1.6-.4-.4.1-1.5.6-1.2 1.2.4.8.8 1.6 1.2 2.3.3.6 1.1.6 1.6.4.4-.1 1.5-.6 1.2-1.2-.4-.7-.8-1.5-1.2-2.3zM5.7 43.1c-1.5.4-3 .6-4.5 1-.5.1-1.3.6-1.2 1.3.2.7 1.1.7 1.7.6 1.5-.4 3-.6 4.5-1 .5-.1 1.3-.7 1.2-1.3-.3-.7-1.2-.7-1.7-.6z"/>
      <path fill="#ffffff" d="M43.8 40.1c-.1-2.7-.5-5.4-.5-8.1 0-2.2.4-4.5-.4-6.6 0-.2.1-.5.1-.7.2-1.1-3.3-.5-3.8.5-.3.3-.5.6-.4 1 0 .1.1.2.1.3-.7 3.2-1.6 6.4-2.6 9.5-.4 1.2-.9 2.4-1.3 3.6-.6-1.1-1.2-2.2-1.7-3.4-1.4-3.5-2.6-7-4.3-10.3.2-1.5-3.2-1.4-3.9 0-.8 1.7-.7 3.4-.4 5.3.3 2.1.4 4.1.4 6.2 0 4 .4 8 .4 12-.4.4-.5.9-.1 1.4l.6.6c.9.7 3.5.1 3.5-1.3 0-4.2-.3-8.3-.4-12.5v-1.2c.1.1.1.3.2.4.6 1.6 1.3 3.2 2.2 4.7.9 1.5 1.3 3.1 1.8 4.7-.2.2-.3.5-.2.7 0 .2.1.3.3.4.6.6 1.9.3 2.5 0 .3-.1.6-.3.8-.4.3-.2.9-.7.7-1.2 0-.1-.1-.2-.1-.3.5-1.3.7-2.6 1-4 .3-1.4.8-2.8 1.3-4.2.1.6.1 1.3.2 1.9.2 2.6 0 5.1 0 7.7 0 .9.1 1.6.2 2.5.1.3.4 1.8.3 1.9-.6.6-.4 1.3.4 1.4.9.2 2.1-.1 2.8-.7 1.2-1.1.6-2.9.4-4.3-.6-2.4-.1-5.1-.1-7.5zM52.2 40.8c-.1-2-.8-3.9-.8-5.9 0-2.3.2-4.6-.2-6.9-.1-.7-4.1.1-4 1.1.3 2.1.2 4.3.2 6.4 0 2.1.5 3.9.7 6 .3 2.1-.1 4.2.1 6.3.1 1 .8 2.8.1 3.6-.4.5 1.5.3 1.6.3.8-.1 1.8-.4 2.3-1 .7-.8.2-2.4.1-3.4-.2-2.3 0-4.4-.1-6.5zM68.7 37.4c-2.1-2.8-5.9-.8-8.6-1.6-1.4-.4-1.4-2.3-1.4-3.4 0-1.4-.1-2.8-.3-4.2-.1-1.1 0-2.1.8-2.9.1-.1.9-.3.8-.3.4-.1.7-.1 1.1-.1 1.6-.1 4.7.2 4.1 2.5-.3 1 3.6.4 3.9-.6 1.2-4.6-7.4-3.7-9.8-3.1-2.2.6-4.7 1.9-4.8 4.4-.1 1.2.3 2.4.3 3.6.1 1.4-.2 2.8.3 4.2 1.1 3 5.6 1.6 7.8 1.8 3.9.3 2.7 5.5 2.8 8 0 1.3 1.2 3.5.2 4.5-.6.7-2 .7-2.8.8-.8.1-2.2.3-2.8-.5-1-1.4.1-3.8-.1-5.5-.2-1-4.2-.1-4 1 .3 2.7-1.4 6.2 2.4 6.7 2.5.3 5.2-.2 7.6-.9 1.2-.4 2.3-1 3.3-1.8 1-.9.7-2.4.4-3.6-.7-3 .7-6.4-1.2-9zM86.2 37.2c-.1-3.8-.7-7.6-.7-11.4 0-2-4-1.3-4 .3 0 3.6.5 7.2.7 10.9v.2c-2 0-3.9.2-5.9.2.2-4.7-.6-9.3-.4-14 0-.6-3.9-.1-4 1.1-.2 4.5.6 9 .5 13.5-.1 2.2-.2 4.3-.3 6.5 0 1.1.2 2.2.3 3.3.1 1 .5 2.4.2 3.3-.2.8 3.6.3 3.9-.7.5-1.8-.2-4.1-.4-5.9-.2-1.7 0-3.5.1-5.3 2-.1 4.1-.3 6.1 0l.3 4.2c.1 1.2.2 2.3.2 3.5 0 1 .1 2.5-.2 3.5-.8 2.1 3.2 1.9 3.8.4.7-1.9.5-4.2.4-6.2-.2-2.4-.6-4.9-.6-7.4zM103.2 41.8c-.9-2.8-2.4-5.2-3.6-7.9 1-2 2-3.9 3-5.9.8-1.8 1.5-3.9 3.1-5.1.6-.5.6-.9-.3-1-.9-.1-2.1.2-2.8.7-1.5 1.2-2.4 2.6-3.2 4.3-1 2.1-1.9 4.1-3 6.1-.1.1-.2.3-.2.4-.5.3-.8.8-.6 1.3-.8 1.6-1.6 3.1-2.5 4.7-.3-5.6-1-11.2-1.2-16.8 0-1.3-4-.5-4 1.1.2 6.9 1.2 13.8 1.3 20.8v.1c-.3.3-.2.5.1.6 0 1.8-.1 3.5-.2 5.3-.5.8.5 1.1 1.1 1.1h.1c.7 0 2.6-.4 2.7-1.4.2-2.1.3-4.2.2-6.3 1.6-1.7 2.9-3.7 4.1-5.7.8 1.5 1.5 3 2 4.6.9 2.8 2.3 5.3 3.2 8.1.5 1.8 4.5.7 4-1.1-.9-2.7-2.3-5.3-3.3-8zM127 37.1c-.2-.8-1.4-.9-2.3-.8v-1c-.1-2.7-.2-5.4-.4-8.1-.2-2.5-1.6-3.4-4-3.3-2.4.1-5.3.5-7.6 1.4-2.6 1-4.1 3-4.6 5.7-.6 3 .2 6.3.4 9.3.2 3.5.1 7.1.1 10.6 0 .6 4 0 4-1.1v-8.4c0-.8-.1-1.6-.1-2.5 1.4-.6 3.7 0 5.1.1 1.1.1 2.2-.2 3.3-.3 0 2.3.1 4.7.2 7 0 1.2.5 3.6-.4 4.6-.4.5 1.5.3 1.6.3.8-.1 1.8-.4 2.3-1.1 1-1.1.5-3.8.4-5.2-.1-1.9-.1-3.9-.1-5.8 1 .2 2.3-.6 2.1-1.4zm-14.8-.2c-.1-1.3-.2-2.5-.3-3.8-.2-2.4.1-5.6 2.3-7.1.6-.4 1.7-.3 2.4-.4 1-.2 2-.4 2.9.2 1.2.8.9 3.7.9 4.9 0 2 .2 4 .3 6.1-.6.1-1.1.1-1.7.1-2.3-.1-4.6-.4-6.8 0zM48.8 25.2c.5-.1 1.1-.2 1.5-.5.1-.1.2-.1.3-.2.5-.3 1-.8.7-1.4-.5-1.1-.4-2.3-.4-3.4 0-1-1-1.3-1.8-1.2-.7.1-2.2.6-2.2 1.5 0 1-.1 2 .1 3 0 .1-.1.2-.1.4-.1.2 0 .4.1.6v.4c.1.2.2.4.4.5.4.3.9.3 1.4.3z"/>
    </symbol>
    <symbol id="logo-footer" viewBox="0 0 101.6 34.1" fill="currentColor">
      <path d="M19.1 21.5c-.1-2.7-.5-5.3-.5-8 0-2.2.4-4.4-.4-6.5 0-.2.1-.5.1-.7.2-1-3.3-.5-3.8.5-.3.3-.5.6-.4 1 0 .1.1.2.1.3-.7 3.2-1.6 6.3-2.6 9.4-.4 1.2-.9 2.3-1.3 3.5-.6-1.1-1.2-2.2-1.6-3.4-1.4-3.4-2.6-6.9-4.3-10.2.2-1.5-3.2-1.4-3.9 0-.8 1.7-.7 3.4-.4 5.2.3 2 .4 4 .4 6.1 0 4 .4 7.9.4 11.9-.4.4-.5.9-.1 1.4.2.2.4.4.6.5 1 .7 3.6.1 3.6-1.3 0-4.1-.3-8.2-.4-12.4v-1.2c.1.1.1.3.2.4.6 1.6 1.3 3.2 2.2 4.7.9 1.5 1.3 3.1 1.8 4.7-.2.2-.3.5-.2.7 0 .2.1.3.3.4.6.5 1.8.3 2.5 0 .3-.1.6-.3.8-.4.3-.2.9-.7.7-1.2 0-.1-.1-.2-.1-.3.5-1.3.7-2.6 1-3.9.3-1.4.8-2.8 1.3-4.1.1.6.1 1.2.2 1.9.2 2.6 0 5.1 0 7.6 0 .8.1 1.6.2 2.5.1.3.4 1.8.3 1.9-.8.5-.6 1.1.2 1.3.9.2 2.1-.1 2.8-.7 1.2-1.1.6-2.8.4-4.2-.5-2.4 0-5-.1-7.4zM27.5 22.2c-.1-2-.8-3.9-.8-5.9 0-2.3.2-4.6-.2-6.9-.1-.7-4.1.1-3.9 1 .3 2.1.2 4.2.2 6.4 0 2 .5 3.9.7 5.9.3 2.1-.1 4.2.1 6.2.1 1 .8 2.7.1 3.6-.4.5 1.5.3 1.6.3.8-.1 1.8-.4 2.3-1 .7-.8.2-2.4.1-3.4-.3-2-.1-4.2-.2-6.2zM43.8 18.9c-2.1-2.8-5.9-.8-8.6-1.5-1.4-.4-1.4-2.3-1.4-3.4 0-1.4-.1-2.7-.3-4.1-.1-1.1 0-2.1.7-2.9.1-.1.9-.3.8-.3.4-.1.7-.1 1.1-.1 1.5-.1 4.6.2 4 2.5-.3 1 3.6.4 3.9-.6 1.2-4.6-7.3-3.7-9.7-3.1-2.2.6-4.6 1.8-4.8 4.4-.1 1.2.3 2.4.3 3.6.1 1.4-.2 2.8.3 4.1 1.1 3 5.5 1.6 7.8 1.7 3.8.3 2.7 5.5 2.7 7.9 0 1.3 1.2 3.4.2 4.5-.6.7-2 .7-2.8.8-.8.1-2.2.3-2.7-.5-1-1.4.1-3.8-.1-5.4-.1-.9-4.1-.1-3.9 1 .3 2.6-1.4 6.1 2.4 6.6 2.4.3 5.2-.2 7.5-.9 1.2-.4 2.3-.9 3.2-1.8 1-.9.7-2.3.4-3.5-.5-3.1.9-6.5-1-9zM61.2 18.7c-.1-3.8-.7-7.5-.7-11.3 0-2-4-1.3-4 .3 0 3.6.5 7.2.7 10.8v.2c-1.9 0-3.9.2-5.9.2.2-4.6-.6-9.2-.4-13.9 0-.6-3.9-.1-3.9 1-.2 4.5.6 8.9.5 13.4-.1 2.1-.2 4.3-.3 6.4 0 1.1.2 2.2.3 3.3.1 1 .5 2.3.2 3.3-.2.8 3.6.3 3.9-.7.5-1.8-.2-4-.4-5.8-.2-1.7 0-3.5.1-5.2 2-.1 4.1-.3 6.1 0 .1 1.4.2 2.8.3 4.1.1 1.2.2 2.3.2 3.5 0 1 .1 2.5-.2 3.5-.8 2.1 3.1 1.9 3.7.4.7-1.9.5-4.2.4-6.2-.2-2.5-.6-4.9-.6-7.3zM78.1 23.1c-.9-2.8-2.4-5.2-3.6-7.8 1-1.9 2-3.9 2.9-5.9.8-1.8 1.4-3.8 3.1-5.1.6-.4.6-.9-.3-1-.9-.1-2.1.2-2.8.7C76 5.3 75 6.7 74.3 8.4c-.9 2.1-1.9 4.1-2.9 6.1-.1.1-.1.3-.2.4-.5.3-.8.8-.6 1.3-.8 1.6-1.6 3.1-2.5 4.6-.3-5.5-1-11.1-1.2-16.6 0-1.3-4-.5-3.9 1 .2 6.9 1.2 13.7 1.3 20.6v.1c-.3.3-.2.5.1.6 0 1.8-.1 3.5-.2 5.3-.5.7.5 1.1 1.1 1.1h.1c.7 0 2.6-.3 2.7-1.4.2-2.1.3-4.2.2-6.3 1.6-1.7 2.9-3.6 4.1-5.6.8 1.5 1.5 3 2 4.6.9 2.7 2.3 5.3 3.1 8 .5 1.8 4.5.7 3.9-1-1-2.8-2.4-5.3-3.3-8.1zM101.6 18.5c-.2-.8-1.4-.8-2.3-.8v-1c-.1-2.7-.2-5.4-.4-8-.2-2.5-1.6-3.3-4-3.2-2.4.1-5.2.5-7.5 1.4-2.6 1-4.1 2.9-4.6 5.7-.5 3 .2 6.2.4 9.2.2 3.5.1 7 .1 10.5 0 .6 3.9 0 3.9-1V23c0-.8-.1-1.6-.1-2.4 1.4-.6 3.7 0 5.1.1 1.1.1 2.2-.2 3.2-.3 0 2.3.1 4.6.2 6.9 0 1.2.5 3.5-.4 4.5-.4.5 1.5.3 1.6.3.8-.1 1.8-.4 2.3-1 .9-1.1.5-3.8.4-5.1-.1-1.9-.1-3.8-.1-5.7 1.1-.2 2.4-.9 2.2-1.8zM87 18.4c-.1-1.2-.2-2.5-.3-3.7-.2-2.3.1-5.6 2.3-7 .6-.4 1.7-.3 2.4-.4 1-.2 2-.4 2.8.2 1.2.8.9 3.7.9 4.9 0 2 .2 4 .3 6-.6.1-1.1.1-1.7.1-2.3-.2-4.6-.6-6.7-.1zM24.1 6.7c.5-.1 1-.2 1.5-.5l.2-.2c.5-.3 1-.8.7-1.4-.5-1.1-.4-2.2-.4-3.4 0-1-1-1.2-1.8-1.2-.7.1-2.2.6-2.2 1.5 0 1-.1 2 .1 3 0 .1-.1.2-.1.4-.1.2 0 .4.1.6v.4c.1.2.2.4.4.5.6.3 1.1.3 1.5.3z"/>
    </symbol>
    <symbol id="logo-mobile" viewBox="32.5 20.2 85.6 35">
      <path d="M36.6 46.5c0-3.5-.3-6.9-.4-10.4v-1c0 .1.1.2.1.4.5 1.4 1.1 2.7 1.8 3.9.7 1.2 1.1 2.6 1.5 3.9-.2.2-.3.4-.2.6 0 .2.1.2.2.3.5.5 1.5.2 2.1 0 .2-.1.5-.2.7-.4.3-.2.7-.6.6-1 0-.1 0-.2-.1-.2.4-1.1.6-2.2.8-3.3.2-1.2.7-2.3 1.1-3.5 0 .5.1 1 .1 1.6.2 2.1 0 4.3 0 6.4 0 .7 0 1.4.2 2.1.1.3.3 1.5.2 1.6-.5.5-.4 1.1.3 1.2.8.2 1.8-.1 2.3-.6 1-.9.5-2.4.3-3.6-.4-2 .1-4.2 0-6.2-.1-2.3-.4-4.5-.4-6.8 0-1.8.3-3.7-.3-5.5 0-.2.1-.4.1-.6.2-.9-2.8-.4-3.2.4-.3.2-.4.5-.3.8 0 .1.1.1.1.2-.6 2.7-1.3 5.3-2.2 7.9-.3 1-.7 2-1.1 3-.5-.9-1-1.9-1.4-2.8-1.2-2.9-2.2-5.8-3.6-8.6.2-1.3-2.7-1.2-3.3 0-.7 1.4-.6 2.9-.4 4.4.3 1.7.3 3.4.3 5.1 0 3.3.3 6.7.4 10-.3.3-.4.7-.1 1.2.1.2.3.3.5.5 1.2.7 3.3.2 3.3-1zM54.8 28.1c-.1-.6-3.4.1-3.3.9.3 1.8.2 3.6.1 5.4 0 1.7.4 3.3.6 5 .2 1.7-.1 3.5.1 5.2.1.8.6 2.3.1 3-.4.4 1.2.3 1.3.3.6-.1 1.5-.3 1.9-.9.6-.7.2-2 0-2.8-.3-1.7-.1-3.5-.2-5.3-.1-1.7-.6-3.3-.7-4.9.3-2 .4-3.9.1-5.9zM58 34.8c.9 2.5 4.6 1.3 6.6 1.5 3.2.2 2.3 4.6 2.3 6.6 0 1.1 1 2.9.2 3.8-.5.6-1.7.6-2.4.6-.7.1-1.9.3-2.3-.4-.8-1.2.1-3.2-.1-4.6-.1-.8-3.4-.1-3.3.9.3 2.2-1.2 5.2 2 5.6 2.1.2 4.4-.1 6.3-.8 1-.3 1.9-.8 2.7-1.5.9-.8.6-2 .4-3-.6-2.5.6-5.3-1-7.5-1.7-2.3-5-.7-7.2-1.3-1.2-.2-1.2-1.8-1.2-2.8 0-1.2-.1-2.3-.2-3.5-.1-.9 0-1.8.6-2.4.1-.1.7-.3.7-.3.3-.1.6-.1.9-.1 1.3-.1 3.9.2 3.4 2.1-.2.9 3 .4 3.3-.5 1-3.9-6.1-3.1-8.2-2.6-1.9.5-3.9 1.6-4 3.7-.1 1 .2 2 .3 3 0 1.2-.3 2.4.2 3.5zM72.4 36.7c-.1 1.8-.2 3.6-.2 5.4 0 .9.1 1.8.3 2.8.1.8.4 2 .2 2.8-.2.6 3 .2 3.3-.6.5-1.5-.2-3.4-.3-4.9-.1-1.5 0-2.9.1-4.4 1.7-.1 3.4-.2 5.1 0 .1 1.2.2 2.3.3 3.5.1 1 .2 1.9.2 2.9 0 .9.1 2.1-.2 2.9-.7 1.7 2.7 1.6 3.1.3.6-1.6.4-3.5.3-5.2-.3-2.2-.6-4.2-.6-6.3-.1-3.2-.6-6.3-.6-9.5 0-1.7-3.3-1.1-3.3.3 0 3 .4 6 .6 9.1v.2c-1.6 0-3.3.1-4.9.2.2-3.9-.5-7.8-.4-11.7 0-.5-3.3-.1-3.3.9-.2 3.8.4 7.5.3 11.3zM86.5 42c-.3.3-.2.4 0 .5 0 1.5 0 2.9-.2 4.4-.4.6.4 1 .9 1h.1c.6 0 2.2-.3 2.3-1.1.2-1.8.2-3.5.2-5.3 1.3-1.4 2.4-3.1 3.4-4.7.6 1.2 1.2 2.5 1.7 3.9.7 2.3 1.9 4.4 2.6 6.8.5 1.5 3.8.6 3.3-.9-.7-2.3-1.9-4.5-2.6-6.8-.8-2.3-2-4.4-3-6.6.8-1.6 1.7-3.3 2.5-5 .7-1.5 1.2-3.2 2.6-4.3.5-.4.5-.8-.2-.8-.7-.1-1.7.2-2.3.6-1.3 1-2 2.2-2.7 3.6-.8 1.7-1.6 3.4-2.5 5.1-.1.1-.1.2-.2.4-.4.3-.7.6-.5 1.1-.7 1.3-1.3 2.6-2.1 3.9-.3-4.7-.8-9.3-1-14 0-1.1-3.3-.4-3.3.9.2 5.7 1 11.5 1 17.3zM118 35.8c-.2-.7-1.2-.7-1.9-.6v-.8c-.1-2.2-.1-4.5-.3-6.8-.2-2.1-1.3-2.8-3.3-2.7-2 .1-4.4.4-6.3 1.2-2.2.9-3.4 2.5-3.8 4.8-.5 2.5.2 5.2.3 7.8.1 3 .1 5.9.1 8.9 0 .5 3.3 0 3.3-.9v-7c0-.7 0-1.4-.1-2.1 1.2-.5 3.1 0 4.3.1.9.1 1.8-.1 2.7-.2 0 1.9.1 3.9.2 5.9 0 1 .4 3-.3 3.8-.4.4 1.2.3 1.3.3.7-.1 1.5-.3 1.9-.9.8-.9.4-3.2.3-4.3-.1-1.6-.1-3.2-.1-4.8.8-.4 1.9-1 1.7-1.7zm-6.6-.2c-1.9 0-3.8-.3-5.7 0-.1-1.1-.2-2.1-.3-3.2-.1-2 .1-4.7 1.9-5.9.5-.3 1.4-.3 2-.4.8-.1 1.6-.3 2.4.2 1 .7.8 3.1.8 4.1 0 1.7.2 3.4.3 5.1-.5.1-1 .1-1.4.1zM51.2 24.3c0 .2 0 .4.1.5v.4c.1.2.2.3.4.4.3.2.7.2 1.1.2.4 0 .9-.2 1.2-.4l.2-.2c.4-.3.8-.7.6-1.1-.4-.9-.4-1.9-.3-2.9 0-.8-.8-1.1-1.5-1-.6.1-1.8.5-1.8 1.3s-.1 1.7.1 2.5c-.1.1-.1.2-.1.3zM112.7 53.5c-1.6-.6-3.3-.6-4.9-.8-1.6-.2-3.2-.4-4.9-.6-1.6.1-3.3 0-5 .1l-4.9.3c-6.5.3-13 .3-19.5.1-6.5-.1-13-.5-19.6-.5-3.3 0-6.6.1-9.9.3-1.6.3-3.2.5-4.9.9-1.6.4-3.1.9-4.8 1 1.6.4 3.3.3 5 .3 1.6 0 3.2.1 4.9.2 3.2-.2 6.5-.2 9.7-.3 6.5 0 13 .3 19.6.5 6.5.1 13.1.2 19.7-.1l4.9-.3c1.6-.1 3.2-.1 4.8-.1 1.6-.1 3.3-.3 4.9-.5 1.7-.2 3.2-.6 4.9-.5h.1v-.1-.5c0 .4 0 .5-.1.6z"/>
    </symbol>
    <symbol id="logo-tablet" viewBox="19.1 15 112.4 46.1">
      <path d="M129.4 56.9c4.4.9.8-35.9.1-38.3-2-6.6-26.7-2.1-32.2-1.7-12.7 1-25.2-1-37.6-.4-6.2.3-34.9-1.8-37.5 2-5 7.2-2.7 25.8-1.3 35.1-4 .8 2.3 4.2 3.1 4.9 6.3 2.2 16.4-.2 23 .4 15.4 1.5 31.8-2.2 47.3-1 4.5 1.1 9.6 1 14.2 1.2 3.5 5.6 19.7-2.4 20.9-2.2-.1 0 .5.1 0 0z" id="Layer_2"/>
      <path fill="#ffffff" d="M45.2 39.4c-.1-2.5-.5-5.1-.5-7.6 0-2.1.4-4.2-.3-6.2 0-.2.1-.4.1-.7.2-1-3.1-.5-3.6.4-.3.3-.5.6-.4.9 0 .1.1.2.1.2-.6 3-1.5 6-2.5 8.9-.4 1.1-.8 2.2-1.2 3.4-.6-1-1.1-2.1-1.6-3.2-1.3-3.3-2.5-6.6-4.1-9.7.2-1.5-3-1.3-3.7 0-.8 1.6-.7 3.2-.4 4.9.3 1.9.3 3.8.4 5.8 0 3.8.3 7.5.4 11.3-.3.4-.4.8-.1 1.3.2.2.3.4.5.5.9.7 3.3.1 3.3-1.2 0-3.9-.3-7.8-.4-11.7v-1.1c.1.1.1.3.2.4.6 1.5 1.2 3 2.1 4.4.8 1.4 1.2 2.9 1.7 4.4-.2.2-.3.4-.2.7 0 .2.1.3.2.3.6.5 1.7.3 2.4 0 .3-.1.5-.2.8-.4.3-.2.8-.6.7-1.1 0-.1-.1-.2-.1-.3.4-1.2.7-2.5.9-3.7.3-1.4.7-2.6 1.2-3.9 0 .6.1 1.2.1 1.8.2 2.4 0 4.8 0 7.2 0 .8.1 1.5.2 2.3.1.3.3 1.7.3 1.8-.6.5-.4 1.2.4 1.4.9.2 2-.1 2.6-.7 1.1-1 .6-2.7.3-4-.3-2 .3-4.5.2-6.8zM53.1 40.1c-.1-1.9-.7-3.7-.7-5.6 0-2.2.2-4.4-.1-6.5-.1-.7-3.8.1-3.7 1 .3 2 .2 4 .2 6 0 1.9.4 3.7.7 5.6.3 2-.1 3.9.1 5.9.1.9.7 2.6.1 3.4-.4.5 1.4.3 1.5.3.7-.1 1.7-.4 2.2-1 .6-.8.2-2.3.1-3.2-.5-1.9-.3-4-.4-5.9zM68.6 36.9c-2-2.6-5.6-.7-8.1-1.5-1.3-.4-1.3-2.2-1.3-3.2 0-1.4-.1-2.6-.3-3.9-.1-1 0-2 .7-2.8.1-.1.8-.3.8-.3.3-.1.6-.1 1-.1 1.5-.1 4.4.2 3.8 2.4-.3 1 3.4.4 3.7-.6 1.2-4.4-6.9-3.5-9.2-2.9-2.1.6-4.4 1.8-4.5 4.2-.1 1.2.3 2.3.3 3.4.1 1.3-.2 2.6.3 3.9 1 2.8 5.2 1.5 7.4 1.7 3.6.3 2.6 5.2 2.6 7.5 0 1.2 1.1 3.3.2 4.3-.6.6-1.9.7-2.6.7-.8.1-2.1.3-2.6-.4-.9-1.3.1-3.6-.1-5.1-.1-.9-3.9-.1-3.7 1 .3 2.5-1.3 5.8 2.3 6.3 2.3.3 4.9-.2 7.1-.9 1.1-.4 2.2-.9 3.1-1.7 1-.9.7-2.2.4-3.4-.8-3 .5-6.2-1.3-8.6zM85.1 36.7c-.1-3.6-.7-7.1-.7-10.7 0-1.9-3.8-1.2-3.8.3 0 3.4.5 6.8.6 10.2v.2c-1.8 0-3.7.2-5.6.2.2-4.4-.6-8.8-.4-13.1 0-.6-3.7-.1-3.7 1-.2 4.2.6 8.5.4 12.7-.1 2-.2 4-.2 6.1 0 1 .2 2.1.3 3.1.1.9.5 2.2.2 3.1-.2.7 3.4.3 3.7-.7.5-1.7-.2-3.8-.4-5.5-.2-1.6 0-3.3.1-5 1.9-.1 3.9-.3 5.8 0l.3 3.9c.1 1.1.2 2.2.2 3.3 0 1 .1 2.4-.2 3.3-.7 2 3 1.8 3.5.3.7-1.8.5-4 .4-5.8-.1-2.2-.5-4.6-.5-6.9zM101.1 41c-.9-2.6-2.3-4.9-3.4-7.4 1-1.9 1.9-3.7 2.8-5.6.8-1.7 1.4-3.6 2.9-4.8.5-.4.5-.8-.2-.9-.8-.1-2 .2-2.6.7-1.4 1.1-2.3 2.4-3 4.1-.9 1.9-1.8 3.9-2.8 5.8-.1.1-.1.3-.2.4-.5.3-.7.7-.6 1.2-.8 1.5-1.5 3-2.4 4.4-.3-5.3-.9-10.5-1.1-15.8 0-1.2-3.8-.5-3.7 1 .2 6.5 1.2 13 1.2 19.5-.3.3-.2.5.1.6 0 1.7-.1 3.3-.2 5-.4.7.4 1.1 1 1.1h.1c.7 0 2.5-.3 2.6-1.3.2-2 .2-4 .2-6 1.5-1.6 2.7-3.4 3.8-5.3.7 1.4 1.4 2.8 1.9 4.3.8 2.6 2.2 5 3 7.6.5 1.7 4.2.7 3.7-1-.9-2.6-2.2-5-3.1-7.6zM123.4 36.6c-.2-.8-1.3-.8-2.2-.7v-1c-.1-2.5-.2-5.1-.4-7.6-.2-2.3-1.5-3.2-3.8-3.1-2.3.1-5 .5-7.1 1.3-2.5 1-3.9 2.8-4.3 5.4-.5 2.9.2 5.9.4 8.8.1 3.3.1 6.7.1 10 0 .5 3.7 0 3.7-1v-7.9c0-.8 0-1.5-.1-2.3 1.3-.6 3.5 0 4.8.1 1.1.1 2.1-.2 3.1-.3 0 2.2.1 4.4.2 6.6 0 1.1.5 3.4-.3 4.3-.4.5 1.4.3 1.5.3.8-.1 1.7-.4 2.2-1 .9-1.1.4-3.6.4-4.9-.1-1.8-.1-3.6-.1-5.4.9-.1 2.1-.8 1.9-1.6zm-13.8-.2l-.3-3.6c-.2-2.2.1-5.3 2.2-6.6.6-.4 1.6-.3 2.2-.4.9-.2 1.9-.4 2.7.2 1.1.8.9 3.5.9 4.6 0 1.9.2 3.8.3 5.7-.5.1-1.1.1-1.6.1-2.2-.1-4.4-.4-6.4 0zM49.9 25.4c.5 0 1-.2 1.4-.5.1-.1.2-.1.2-.2.5-.3.9-.8.7-1.3-.5-1-.4-2.1-.4-3.2 0-.9-.9-1.2-1.7-1.1-.7.1-2.1.6-2.1 1.4 0 .9-.1 1.9.1 2.8 0 .1-.1.2-.1.3-.1.2 0 .4.1.6v.4c.1.2.2.4.4.5.5.3 1 .3 1.4.3z"/>
    </symbol>
    <symbol id="map-pin" viewBox="0 0 66 100.8">
      <path d="M56.3 9.2C43.4-3.1 22.6-3.1 9.7 9.2c-12.9 12.3-12.9 32.2 0 44.5 0 0 23.3 21.8 23.3 47 0-25.2 23.3-47 23.3-47 12.9-12.2 12.9-32.2 0-44.5z" fill="#fff"/>
      <path d="M47 45.5c-.6-3.3.1-6.9 0-10.3-.1-3.8-.7-7.5-.7-11.2 0-3 .5-6.2-.5-9.1.1-.3.1-.7.2-1 .3-1.5-4.6-.7-5.3.6-.5.4-.7.9-.5 1.3.1.1.1.2.1.4-.9 4.5-2.2 8.8-3.7 13.2-.6 1.7-1.2 3.3-1.8 4.9-.8-1.5-1.6-3.1-2.3-4.7-1.9-4.8-3.7-9.7-6-14.3.3-2.1-4.5-1.9-5.4 0-1.1 2.4-1 4.8-.6 7.3.4 2.9.5 5.7.5 8.6.1 5.6.5 11.1.6 16.7-.5.6-.6 1.2-.1 1.9.2.3.5.5.8.8 1.3 1 4.9.2 4.9-1.8 0-5.8-.4-11.5-.6-17.3v-1.7c.1.2.2.4.2.6.9 2.2 1.8 4.4 3.1 6.5 1.2 2.1 1.8 4.3 2.5 6.5-.3.3-.4.6-.3 1-.1.3.1.4.4.5.9.8 2.6.4 3.5 0l1.2-.6c.5-.3 1.2-1 1-1.6 0-.1-.1-.3-.1-.4.7-1.8 1-3.6 1.4-5.5.4-2 1.1-3.9 1.8-5.8.1.9.1 1.7.2 2.6.3 3.6 0 7.1 0 10.7 0 1.2.1 2.3.3 3.4.1.5.5 2.5.4 2.6-.9.8-.6 1.8.5 2 1.3.3 2.9-.1 3.9-1 1.6-1.4.8-3.8.4-5.8z" fill="#6bc6b3"/>
    </symbol>
    <symbol id="search" viewBox="-0.8 -0.8 17.6 17.6" fill="currentColor">
      <path d="M16.5 14.9l-3.4-3.4c1-1.3 1.5-2.9 1.5-4.6 0-4.3-3.4-7.7-7.7-7.7S-.8 2.6-.8 6.9c0 4.3 3.4 7.7 7.7 7.7 1.7 0 3.3-.6 4.6-1.5l3.4 3.4c.2.2.4.3.8.3.6 0 1.1-.5 1.1-1.1 0-.2-.1-.5-.3-.8zm-15.1-8c0-3 2.5-5.5 5.5-5.5s5.5 2.5 5.5 5.5-2.5 5.5-5.5 5.5-5.5-2.5-5.5-5.5z"/>
    </symbol>
    <symbol id="twitter" viewBox="52.3 53.8 23.5 20.2" fill="currentColor">
      <path d="M75.7 57.9c-.2-.4-1.5-.4-2.5-.4.3-.3 2.4-5.7-.3-2.8-1.7 2.8-7.4-.5-9.5 4.3 0 4-7.2-5.5-8.4-3.2.2 1.1-1.3 2.4.1 4.3-1.8.5 0 3.2 1 4.7-2.8.3-.7 3.4 2.5 3.5-.8 1.7-4.2 1.1-6.2 2.1.9 3.2 10.3 5.3 15 1.9 3.1-2.7 7.4-7.1 5.9-12.5.5-.4 2.2-.3 2.4-1.9zm-3.4 4c-1.5 6.3-8.5 14.2-17.4 9.2 3-.3 8.5-3.2 1.3-5 4.3-1.9 1.2-1.2-.7-4.7 3-1.1-.6-1.3.3-4.8 1.2 2.1 4 3.5 6.8 4.7 2.3.7.6-1.9 2.8-3.3 2.5-2.1 7.7-1.3 6.9 3.9zm.3-5.6c-.1.3-.2.7-.6.8-.3-.3.1-.5.6-.8zm-5.5 3c.7 1.5 3.3-.5.6-1.3-.3.2-.4.4-.6 1.3z"/>
    </symbol>

  </svg>
